<svg xmlns="http://www.w3.org/2000/svg" width="1200" height="400" viewBox="0 0 1200 400">
  <!-- Background with gradient -->
  <defs>
    <linearGradient id="bg-gradient" x1="0%" y1="0%" x2="100%" y2="100%">
      <stop offset="0%" stop-color="#f8f3e9" />
      <stop offset="100%" stop-color="#e6d7c3" />
    </linearGradient>
    <pattern id="pattern-dots" width="20" height="20" patternUnits="userSpaceOnUse">
      <circle cx="3" cy="3" r="1.5" fill="#d4c5a8" opacity="0.5" />
    </pattern>
  </defs>
  
  <!-- Main background -->
  <rect width="1200" height="400" fill="url(#bg-gradient)" />
  
  <!-- Pattern overlay -->
  <rect width="1200" height="400" fill="url(#pattern-dots)" opacity="0.6" />
  
  <!-- Decorative elements -->
  <g opacity="0.15">
    <!-- Decorative thread patterns -->
    <path d="M100,50 Q300,150 100,250 Q300,350 500,250 Q700,150 900,250 Q1100,350 1100,150" stroke="#8a7e6b" stroke-width="2" fill="none" />
    <path d="M50,100 Q250,200 450,100 Q650,0 850,100 Q1050,200 1150,100" stroke="#8a7e6b" stroke-width="2" fill="none" />
  </g>
  
  <!-- Casual blouse illustration -->
  <g transform="translate(600, 200)" opacity="0.85">
    <!-- Blouse outline -->
    <path d="M-150,-80 C-140,-90 -120,-100 -100,-100 L100,-100 C120,-100 140,-90 150,-80 L150,80 C140,90 120,100 100,100 L-100,100 C-120,100 -140,90 -150,80 Z" fill="#fff" stroke="#d4c5a8" stroke-width="3" />
    
    <!-- Neckline -->
    <path d="M-50,-100 C-30,-130 30,-130 50,-100" fill="none" stroke="#d4c5a8" stroke-width="3" />
    
    <!-- Sleeve left -->
    <path d="M-150,-60 C-180,-40 -200,-10 -210,20" fill="none" stroke="#d4c5a8" stroke-width="3" />
    
    <!-- Sleeve right -->
    <path d="M150,-60 C180,-40 200,-10 210,20" fill="none" stroke="#d4c5a8" stroke-width="3" />
    
    <!-- Simple embroidery pattern -->
    <g fill="none" stroke="#c1a878" stroke-width="1.5">
      <!-- Left side embroidery -->
      <path d="M-100,-50 C-90,-60 -80,-40 -70,-50 C-60,-60 -50,-40 -40,-50" />
      <path d="M-90,-30 C-80,-40 -70,-20 -60,-30 C-50,-40 -40,-20 -30,-30" />
      <path d="M-80,-10 C-70,-20 -60,0 -50,-10 C-40,-20 -30,0 -20,-10" />
      
      <!-- Right side embroidery -->
      <path d="M100,-50 C90,-60 80,-40 70,-50 C60,-60 50,-40 40,-50" />
      <path d="M90,-30 C80,-40 70,-20 60,-30 C50,-40 40,-20 30,-30" />
      <path d="M80,-10 C70,-20 60,0 50,-10 C40,-20 30,0 20,-10" />
      
      <!-- Bottom embroidery -->
      <path d="M-60,60 C-40,50 -20,70 0,60 C20,50 40,70 60,60" />
    </g>
    
    <!-- Small floral details -->
    <g fill="#e6d7c3" stroke="#c1a878" stroke-width="1">
      <!-- Left flowers -->
      <circle cx="-80" cy="-40" r="5" />
      <circle cx="-75" cy="-45" r="3" />
      <circle cx="-85" cy="-45" r="3" />
      <circle cx="-80" cy="-50" r="3" />
      
      <!-- Right flowers -->
      <circle cx="80" cy="-40" r="5" />
      <circle cx="75" cy="-45" r="3" />
      <circle cx="85" cy="-45" r="3" />
      <circle cx="80" cy="-50" r="3" />
      
      <!-- Bottom flowers -->
      <circle cx="0" cy="70" r="5" />
      <circle cx="-5" cy="65" r="3" />
      <circle cx="5" cy="65" r="3" />
      <circle cx="0" cy="60" r="3" />
    </g>
  </g>
</svg>