<svg width="400" height="500" xmlns="http://www.w3.org/2000/svg">
  <!-- Background gradient -->
  <defs>
    <linearGradient id="bg-gradient" x1="0%" y1="0%" x2="100%" y2="100%">
      <stop offset="0%" stop-color="#134E5E" />
      <stop offset="100%" stop-color="#71B280" />
    </linearGradient>
  </defs>
  
  <!-- Background rectangle -->
  <rect width="100%" height="100%" fill="url(#bg-gradient)" />
  
  <!-- Decorative elements -->
  <g opacity="0.3" fill="#ffffff">
    <!-- Stylized casual blouse outline -->
    <path d="M200 100 Q270 110 290 180 Q310 250 290 320 Q270 390 200 410 Q130 390 110 320 Q90 250 110 180 Q130 110 200 100 Z" stroke="#ffffff" stroke-width="3" fill="none" />
    
    <!-- Simple casual maggam work patterns -->
    <circle cx="200" cy="200" r="30" fill="none" stroke="#ffffff" stroke-width="1" />
    <circle cx="200" cy="200" r="25" fill="none" stroke="#ffffff" stroke-width="1" />
    
    <!-- Central design element -->
    <path d="M185 185 L215 185 L215 215 L185 215 Z" fill="none" stroke="#ffffff" stroke-width="1" />
    <path d="M190 190 L210 190 L210 210 L190 210 Z" fill="none" stroke="#ffffff" stroke-width="1" />
    
    <!-- Simple floral patterns -->
    <path d="M160 160 Q180 140 200 160 Q220 180 200 200 Q180 220 160 200 Q140 180 160 160 Z" fill="none" stroke="#ffffff" stroke-width="1" />
    <path d="M240 160 Q260 140 280 160 Q300 180 280 200 Q260 220 240 200 Q220 180 240 160 Z" fill="none" stroke="#ffffff" stroke-width="1" />
    
    <!-- Lower design elements -->
    <path d="M160 240 Q180 220 200 240 Q220 260 200 280 Q180 300 160 280 Q140 260 160 240 Z" fill="none" stroke="#ffffff" stroke-width="1" />
    <path d="M240 240 Q260 220 280 240 Q300 260 280 280 Q260 300 240 280 Q220 260 240 240 Z" fill="none" stroke="#ffffff" stroke-width="1" />
    
    <!-- Simple dots representing minimal embellishments -->
    <circle cx="170" cy="170" r="2" />
    <circle cx="230" cy="170" r="2" />
    <circle cx="170" cy="230" r="2" />
    <circle cx="230" cy="230" r="2" />
    
    <!-- Simple border pattern -->
    <rect x="150" y="300" width="100" height="10" fill="none" stroke="#ffffff" stroke-width="1" />
    <rect x="160" y="305" width="80" height="1" fill="#ffffff" />
    
    <!-- Decorative border -->
    <rect x="50" y="50" width="300" height="400" rx="5" ry="5" fill="none" stroke="#ffffff" stroke-width="1" stroke-dasharray="5,5" />
  </g>
  
  <!-- Text label -->
  <text x="200" y="450" font-family="Arial, sans-serif" font-size="20" font-weight="bold" fill="white" text-anchor="middle">Casual Maggam Blouse</text>
  <text x="200" y="475" font-family="Arial, sans-serif" font-size="16" fill="white" text-anchor="middle">Simple elegant design for everyday wear</text>
  
  <!-- Subtle texture overlay -->
  <rect width="100%" height="100%" fill="url(#noise)" opacity="0.05" />
  
  <defs>
    <filter id="noise" x="0%" y="0%" width="100%" height="100%">
      <feTurbulence type="fractalNoise" baseFrequency="0.65" numOctaves="3" stitchTiles="stitch" />
      <feColorMatrix type="saturate" values="0" />
    </filter>
  </defs>
</svg>