<svg xmlns="http://www.w3.org/2000/svg" width="1200" height="400" viewBox="0 0 1200 400">
  <!-- Background with elegant pattern -->
  <defs>
    <pattern id="casualPattern" patternUnits="userSpaceOnUse" width="60" height="60" patternTransform="rotate(15)">
      <path d="M0,30 L60,30" stroke="#a3d4c5" stroke-width="1" opacity="0.2"/>
      <path d="M30,0 L30,60" stroke="#a3d4c5" stroke-width="1" opacity="0.2"/>
    </pattern>
    <linearGradient id="bgGradient" x1="0%" y1="0%" x2="100%" y2="100%">
      <stop offset="0%" style="stop-color:#2c4a42;stop-opacity:1" />
      <stop offset="100%" style="stop-color:#4b6d68;stop-opacity:1" />
    </linearGradient>
  </defs>
  
  <!-- Main background -->
  <rect width="1200" height="400" fill="url(#bgGradient)"/>
  <rect width="1200" height="400" fill="url(#casualPattern)"/>
  
  <!-- Decorative elements similar to other banners -->
  <g opacity="0.8">
    <!-- Decorative casual elements -->
    <path d="M50,100 C150,50 250,150 350,100 C450,50 550,150 650,100" stroke="#a3d4c5" stroke-width="2" fill="none"/>
    <path d="M550,300 C650,250 750,350 850,300 C950,250 1050,350 1150,300" stroke="#a3d4c5" stroke-width="2" fill="none"/>
    
    <!-- Stylish design elements -->
    <circle cx="100" cy="100" r="4" fill="#a3d4c5"/>
    <circle cx="200" cy="80" r="6" fill="#a3d4c5"/>
    <circle cx="300" cy="100" r="4" fill="#a3d4c5"/>
    <circle cx="400" cy="80" r="6" fill="#a3d4c5"/>
    <circle cx="500" cy="100" r="4" fill="#a3d4c5"/>
    <circle cx="600" cy="80" r="6" fill="#a3d4c5"/>
    
    <circle cx="600" cy="300" r="4" fill="#a3d4c5"/>
    <circle cx="700" cy="320" r="6" fill="#a3d4c5"/>
    <circle cx="800" cy="300" r="4" fill="#a3d4c5"/>
    <circle cx="900" cy="320" r="6" fill="#a3d4c5"/>
    <circle cx="1000" cy="300" r="4" fill="#a3d4c5"/>
    <circle cx="1100" cy="320" r="6" fill="#a3d4c5"/>
  </g>
  
  <!-- Central decorative element -->
  <g transform="translate(600, 200)">
    <!-- Stylized casual blouse shape -->
    <path d="M-150,-80 C-140,-90 -120,-100 -100,-100 L100,-100 C120,-100 140,-90 150,-80 L150,80 C140,90 120,100 100,100 L-100,100 C-120,100 -140,90 -150,80 Z" fill="none" stroke="#a3d4c5" stroke-width="3" />
    
    <!-- Neckline -->
    <path d="M-50,-100 C-30,-130 30,-130 50,-100" fill="none" stroke="#a3d4c5" stroke-width="3" />
    
    <!-- Sleeve left -->
    <path d="M-150,-60 C-180,-40 -200,-10 -210,20" fill="none" stroke="#a3d4c5" stroke-width="3" />
    
    <!-- Sleeve right -->
    <path d="M150,-60 C180,-40 200,-10 210,20" fill="none" stroke="#a3d4c5" stroke-width="3" />
    
    <!-- Simple embroidery pattern -->
    <g fill="none" stroke="#a3d4c5" stroke-width="1.5">
      <!-- Left side embroidery -->
      <path d="M-100,-50 C-90,-60 -80,-40 -70,-50 C-60,-60 -50,-40 -40,-50" />
      <path d="M-90,-30 C-80,-40 -70,-20 -60,-30 C-50,-40 -40,-20 -30,-30" />
      <path d="M-80,-10 C-70,-20 -60,0 -50,-10 C-40,-20 -30,0 -20,-10" />
      
      <!-- Right side embroidery -->
      <path d="M100,-50 C90,-60 80,-40 70,-50 C60,-60 50,-40 40,-50" />
      <path d="M90,-30 C80,-40 70,-20 60,-30 C50,-40 40,-20 30,-30" />
      <path d="M80,-10 C70,-20 60,0 50,-10 C40,-20 30,0 20,-10" />
      
      <!-- Bottom embroidery -->
      <path d="M-60,60 C-40,50 -20,70 0,60 C20,50 40,70 60,60" />
    </g>
    
    <!-- Small floral details -->
    <g fill="#a3d4c5" stroke="#a3d4c5" stroke-width="1" opacity="0.7">
      <!-- Left flowers -->
      <circle cx="-80" cy="-40" r="5" />
      <circle cx="-75" cy="-45" r="3" />
      <circle cx="-85" cy="-45" r="3" />
      <circle cx="-80" cy="-50" r="3" />
      
      <!-- Right flowers -->
      <circle cx="80" cy="-40" r="5" />
      <circle cx="75" cy="-45" r="3" />
      <circle cx="85" cy="-45" r="3" />
      <circle cx="80" cy="-50" r="3" />
      
      <!-- Bottom flowers -->
      <circle cx="0" cy="70" r="5" />
      <circle cx="-5" cy="65" r="3" />
      <circle cx="5" cy="65" r="3" />
      <circle cx="0" cy="60" r="3" />
    </g>
  </g>
</svg>