<svg width="800" height="600" xmlns="http://www.w3.org/2000/svg">
  <!-- Background Gradient -->
  <defs>
    <linearGradient id="bg-gradient" x1="0%" y1="0%" x2="100%" y2="100%">
      <stop offset="0%" stop-color="#9b59b6" />
      <stop offset="100%" stop-color="#8e44ad" />
    </linearGradient>
  </defs>
  <rect width="100%" height="100%" fill="url(#bg-gradient)" />
  
  <!-- Stylized Silk Blouse Outline with Crystal Work -->
  <g transform="translate(400, 300)">
    <!-- Blouse Body -->
    <path d="M -150,-120 C -120,-130 -80,-130 -50,-120 L -50,0 C -80,30 -120,30 -150,0 Z" fill="#9b59b6" opacity="0.8" />
    <path d="M 150,-120 C 120,-130 80,-130 50,-120 L 50,0 C 80,30 120,30 150,0 Z" fill="#9b59b6" opacity="0.8" />
    
    <!-- Neckline -->
    <path d="M -50,-120 C -30,-150 30,-150 50,-120" fill="none" stroke="#f0f0f0" stroke-width="4" />
    
    <!-- Decorative Crystal and Bead Work -->
    <g>
      <!-- Left Side Elaborate Pattern -->
      <path d="M -120,-100 C -100,-110 -80,-90 -60,-100" stroke="#f0f0f0" stroke-width="2" fill="none" />
      <path d="M -130,-80 C -110,-90 -90,-70 -70,-80" stroke="#f0f0f0" stroke-width="2" fill="none" />
      <path d="M -140,-60 C -120,-70 -100,-50 -80,-60" stroke="#f0f0f0" stroke-width="2" fill="none" />
      <path d="M -130,-40 C -110,-50 -90,-30 -70,-40" stroke="#f0f0f0" stroke-width="2" fill="none" />
      <path d="M -120,-20 C -100,-30 -80,-10 -60,-20" stroke="#f0f0f0" stroke-width="2" fill="none" />
      
      <!-- Right Side Elaborate Pattern -->
      <path d="M 120,-100 C 100,-110 80,-90 60,-100" stroke="#f0f0f0" stroke-width="2" fill="none" />
      <path d="M 130,-80 C 110,-90 90,-70 70,-80" stroke="#f0f0f0" stroke-width="2" fill="none" />
      <path d="M 140,-60 C 120,-70 100,-50 80,-60" stroke="#f0f0f0" stroke-width="2" fill="none" />
      <path d="M 130,-40 C 110,-50 90,-30 70,-40" stroke="#f0f0f0" stroke-width="2" fill="none" />
      <path d="M 120,-20 C 100,-30 80,-10 60,-20" stroke="#f0f0f0" stroke-width="2" fill="none" />
      
      <!-- Center Elaborate Embellishment -->
      <circle cx="0" cy="-90" r="25" fill="none" stroke="#f0f0f0" stroke-width="2" />
      <circle cx="0" cy="-90" r="18" fill="none" stroke="#f0f0f0" stroke-width="1.5" />
      <circle cx="0" cy="-90" r="10" fill="#f0f0f0" opacity="0.8" />
      
      <!-- Crystal Pattern Elements -->
      <path d="M -20,-90 C -15,-100 -5,-100 0,-90 C 5,-100 15,-100 20,-90" stroke="#f0f0f0" stroke-width="1.5" fill="none" />
      <path d="M -20,-80 C -15,-70 -5,-70 0,-80 C 5,-70 15,-70 20,-80" stroke="#f0f0f0" stroke-width="1.5" fill="none" />
      
      <!-- Decorative Crystals and Beads -->
      <!-- Left Side -->
      <g transform="translate(-100, -100)">
        <polygon points="0,0 3,5 0,10 -3,5" fill="#ffffff" opacity="0.9" />
        <circle cx="0" cy="5" r="1" fill="#ffffff" />
      </g>
      
      <g transform="translate(-80, -90)">
        <polygon points="0,0 2,4 0,8 -2,4" fill="#ffffff" opacity="0.9" />
        <circle cx="0" cy="4" r="0.8" fill="#ffffff" />
      </g>
      
      <g transform="translate(-60, -100)">
        <polygon points="0,0 3,5 0,10 -3,5" fill="#ffffff" opacity="0.9" />
        <circle cx="0" cy="5" r="1" fill="#ffffff" />
      </g>
      
      <g transform="translate(-110, -80)">
        <polygon points="0,0 2,4 0,8 -2,4" fill="#ffffff" opacity="0.9" />
        <circle cx="0" cy="4" r="0.8" fill="#ffffff" />
      </g>
      
      <g transform="translate(-90, -70)">
        <polygon points="0,0 3,5 0,10 -3,5" fill="#ffffff" opacity="0.9" />
        <circle cx="0" cy="5" r="1" fill="#ffffff" />
      </g>
      
      <g transform="translate(-70, -80)">
        <polygon points="0,0 2,4 0,8 -2,4" fill="#ffffff" opacity="0.9" />
        <circle cx="0" cy="4" r="0.8" fill="#ffffff" />
      </g>
      
      <g transform="translate(-120, -60)">
        <polygon points="0,0 3,5 0,10 -3,5" fill="#ffffff" opacity="0.9" />
        <circle cx="0" cy="5" r="1" fill="#ffffff" />
      </g>
      
      <g transform="translate(-100, -50)">
        <polygon points="0,0 2,4 0,8 -2,4" fill="#ffffff" opacity="0.9" />
        <circle cx="0" cy="4" r="0.8" fill="#ffffff" />
      </g>
      
      <g transform="translate(-80, -60)">
        <polygon points="0,0 3,5 0,10 -3,5" fill="#ffffff" opacity="0.9" />
        <circle cx="0" cy="5" r="1" fill="#ffffff" />
      </g>
      
      <g transform="translate(-110, -40)">
        <polygon points="0,0 2,4 0,8 -2,4" fill="#ffffff" opacity="0.9" />
        <circle cx="0" cy="4" r="0.8" fill="#ffffff" />
      </g>
      
      <g transform="translate(-90, -30)">
        <polygon points="0,0 3,5 0,10 -3,5" fill="#ffffff" opacity="0.9" />
        <circle cx="0" cy="5" r="1" fill="#ffffff" />
      </g>
      
      <g transform="translate(-70, -40)">
        <polygon points="0,0 2,4 0,8 -2,4" fill="#ffffff" opacity="0.9" />
        <circle cx="0" cy="4" r="0.8" fill="#ffffff" />
      </g>
      
      <g transform="translate(-100, -20)">
        <polygon points="0,0 3,5 0,10 -3,5" fill="#ffffff" opacity="0.9" />
        <circle cx="0" cy="5" r="1" fill="#ffffff" />
      </g>
      
      <g transform="translate(-80, -10)">
        <polygon points="0,0 2,4 0,8 -2,4" fill="#ffffff" opacity="0.9" />
        <circle cx="0" cy="4" r="0.8" fill="#ffffff" />
      </g>
      
      <g transform="translate(-60, -20)">
        <polygon points="0,0 3,5 0,10 -3,5" fill="#ffffff" opacity="0.9" />
        <circle cx="0" cy="5" r="1" fill="#ffffff" />
      </g>
      
      <!-- Right Side -->
      <g transform="translate(100, -100)">
        <polygon points="0,0 3,5 0,10 -3,5" fill="#ffffff" opacity="0.9" />
        <circle cx="0" cy="5" r="1" fill="#ffffff" />
      </g>
      
      <g transform="translate(80, -90)">
        <polygon points="0,0 2,4 0,8 -2,4" fill="#ffffff" opacity="0.9" />
        <circle cx="0" cy="4" r="0.8" fill="#ffffff" />
      </g>
      
      <g transform="translate(60, -100)">
        <polygon points="0,0 3,5 0,10 -3,5" fill="#ffffff" opacity="0.9" />
        <circle cx="0" cy="5" r="1" fill="#ffffff" />
      </g>
      
      <g transform="translate(110, -80)">
        <polygon points="0,0 2,4 0,8 -2,4" fill="#ffffff" opacity="0.9" />
        <circle cx="0" cy="4" r="0.8" fill="#ffffff" />
      </g>
      
      <g transform="translate(90, -70)">
        <polygon points="0,0 3,5 0,10 -3,5" fill="#ffffff" opacity="0.9" />
        <circle cx="0" cy="5" r="1" fill="#ffffff" />
      </g>
      
      <g transform="translate(70, -80)">
        <polygon points="0,0 2,4 0,8 -2,4" fill="#ffffff" opacity="0.9" />
        <circle cx="0" cy="4" r="0.8" fill="#ffffff" />
      </g>
      
      <g transform="translate(120, -60)">
        <polygon points="0,0 3,5 0,10 -3,5" fill="#ffffff" opacity="0.9" />
        <circle cx="0" cy="5" r="1" fill="#ffffff" />
      </g>
      
      <g transform="translate(100, -50)">
        <polygon points="0,0 2,4 0,8 -2,4" fill="#ffffff" opacity="0.9" />
        <circle cx="0" cy="4" r="0.8" fill="#ffffff" />
      </g>
      
      <g transform="translate(80, -60)">
        <polygon points="0,0 3,5 0,10 -3,5" fill="#ffffff" opacity="0.9" />
        <circle cx="0" cy="5" r="1" fill="#ffffff" />
      </g>
      
      <g transform="translate(110, -40)">
        <polygon points="0,0 2,4 0,8 -2,4" fill="#ffffff" opacity="0.9" />
        <circle cx="0" cy="4" r="0.8" fill="#ffffff" />
      </g>
      
      <g transform="translate(90, -30)">
        <polygon points="0,0 3,5 0,10 -3,5" fill="#ffffff" opacity="0.9" />
        <circle cx="0" cy="5" r="1" fill="#ffffff" />
      </g>
      
      <g transform="translate(70, -40)">
        <polygon points="0,0 2,4 0,8 -2,4" fill="#ffffff" opacity="0.9" />
        <circle cx="0" cy="4" r="0.8" fill="#ffffff" />
      </g>
      
      <g transform="translate(100, -20)">
        <polygon points="0,0 3,5 0,10 -3,5" fill="#ffffff" opacity="0.9" />
        <circle cx="0" cy="5" r="1" fill="#ffffff" />
      </g>
      
      <g transform="translate(80, -10)">
        <polygon points="0,0 2,4 0,8 -2,4" fill="#ffffff" opacity="0.9" />
        <circle cx="0" cy="4" r="0.8" fill="#ffffff" />
      </g>
      
      <g transform="translate(60, -20)">
        <polygon points="0,0 3,5 0,10 -3,5" fill="#ffffff" opacity="0.9" />
        <circle cx="0" cy="5" r="1" fill="#ffffff" />
      </g>
      
      <!-- Additional Crystal Clusters -->
      <g transform="translate(-30, -60)">
        <polygon points="0,0 4,7 0,14 -4,7" fill="#ffffff" opacity="0.9" />
        <circle cx="0" cy="7" r="1.5" fill="#ffffff" />
      </g>
      
      <g transform="translate(30, -60)">
        <polygon points="0,0 4,7 0,14 -4,7" fill="#ffffff" opacity="0.9" />
        <circle cx="0" cy="7" r="1.5" fill="#ffffff" />
      </g>
      
      <g transform="translate(-20, -30)">
        <polygon points="0,0 4,7 0,14 -4,7" fill="#ffffff" opacity="0.9" />
        <circle cx="0" cy="7" r="1.5" fill="#ffffff" />
      </g>
      
      <g transform="translate(20, -30)">
        <polygon points="0,0 4,7 0,14 -4,7" fill="#ffffff" opacity="0.9" />
        <circle cx="0" cy="7" r="1.5" fill="#ffffff" />
      </g>
    </g>
  </g>
  
  <!-- Product Label -->
  <g transform="translate(400, 500)">
    <rect x="-150" y="-20" width="300" height="40" rx="5" fill="rgba(0,0,0,0.7)" />
    <text x="0" y="5" font-family="Arial, sans-serif" font-size="16" font-weight="bold" text-anchor="middle" fill="#fff">Crystal Symphony</text>
  </g>
</svg>