<svg width="1200" height="400" xmlns="http://www.w3.org/2000/svg">
  <!-- Background Gradient -->
  <defs>
    <linearGradient id="bg-gradient" x1="0%" y1="0%" x2="100%" y2="100%">
      <stop offset="0%" stop-color="#8e0e00" />
      <stop offset="100%" stop-color="#1f1c18" />
    </linearGradient>
  </defs>
  <rect width="100%" height="100%" fill="url(#bg-gradient)" />
  
  <!-- Decorative Elements -->
  <g opacity="0.2">
    <!-- Decorative Patterns -->
    <path d="M 100,50 C 150,30 200,70 250,50 C 300,30 350,70 400,50" stroke="#d4af37" stroke-width="3" fill="none" />
    <path d="M 500,50 C 550,30 600,70 650,50 C 700,30 750,70 800,50" stroke="#d4af37" stroke-width="3" fill="none" />
    <path d="M 900,50 C 950,30 1000,70 1050,50 C 1100,30 1150,70 1200,50" stroke="#d4af37" stroke-width="3" fill="none" />
    
    <path d="M 100,350 C 150,330 200,370 250,350 C 300,330 350,370 400,350" stroke="#d4af37" stroke-width="3" fill="none" />
    <path d="M 500,350 C 550,330 600,370 650,350 C 700,330 750,370 800,350" stroke="#d4af37" stroke-width="3" fill="none" />
    <path d="M 900,350 C 950,330 1000,370 1050,350 C 1100,330 1150,370 1200,350" stroke="#d4af37" stroke-width="3" fill="none" />
  </g>
  
  <!-- Wedding Blouse Illustration -->
  <g transform="translate(600, 200)" opacity="0.7">
    <!-- Stylized Blouse Outline -->
    <path d="M -150,-80 C -120,-90 -80,-90 -50,-80 L -50,0 C -80,20 -120,20 -150,0 Z" fill="#f5b041" opacity="0.8" />
    <path d="M 150,-80 C 120,-90 80,-90 50,-80 L 50,0 C 80,20 120,20 150,0 Z" fill="#f5b041" opacity="0.8" />
    
    <!-- Neckline -->
    <path d="M -50,-80 C -30,-100 30,-100 50,-80" fill="none" stroke="#d4af37" stroke-width="3" />
    
    <!-- Decorative Embroidery -->
    <g>
      <!-- Left Side -->
      <path d="M -120,-60 C -100,-70 -80,-50 -60,-60" stroke="#d4af37" stroke-width="2" fill="none" />
      <path d="M -120,-40 C -100,-50 -80,-30 -60,-40" stroke="#d4af37" stroke-width="2" fill="none" />
      <path d="M -120,-20 C -100,-30 -80,-10 -60,-20" stroke="#d4af37" stroke-width="2" fill="none" />
      
      <!-- Right Side -->
      <path d="M 120,-60 C 100,-70 80,-50 60,-60" stroke="#d4af37" stroke-width="2" fill="none" />
      <path d="M 120,-40 C 100,-50 80,-30 60,-40" stroke="#d4af37" stroke-width="2" fill="none" />
      <path d="M 120,-20 C 100,-30 80,-10 60,-20" stroke="#d4af37" stroke-width="2" fill="none" />
      
      <!-- Center Embellishment -->
      <circle cx="0" cy="-60" r="15" fill="none" stroke="#d4af37" stroke-width="2" />
      <circle cx="0" cy="-60" r="10" fill="none" stroke="#d4af37" stroke-width="1" />
      <circle cx="0" cy="-60" r="5" fill="#d4af37" />
      
      <!-- Decorative Dots (representing stones and beads) -->
      <circle cx="-100" cy="-60" r="2" fill="#d4af37" />
      <circle cx="-80" cy="-50" r="2" fill="#d4af37" />
      <circle cx="-60" cy="-60" r="2" fill="#d4af37" />
      
      <circle cx="-100" cy="-40" r="2" fill="#d4af37" />
      <circle cx="-80" cy="-30" r="2" fill="#d4af37" />
      <circle cx="-60" cy="-40" r="2" fill="#d4af37" />
      
      <circle cx="-100" cy="-20" r="2" fill="#d4af37" />
      <circle cx="-80" cy="-10" r="2" fill="#d4af37" />
      <circle cx="-60" cy="-20" r="2" fill="#d4af37" />
      
      <circle cx="100" cy="-60" r="2" fill="#d4af37" />
      <circle cx="80" cy="-50" r="2" fill="#d4af37" />
      <circle cx="60" cy="-60" r="2" fill="#d4af37" />
      
      <circle cx="100" cy="-40" r="2" fill="#d4af37" />
      <circle cx="80" cy="-30" r="2" fill="#d4af37" />
      <circle cx="60" cy="-40" r="2" fill="#d4af37" />
      
      <circle cx="100" cy="-20" r="2" fill="#d4af37" />
      <circle cx="80" cy="-10" r="2" fill="#d4af37" />
      <circle cx="60" cy="-20" r="2" fill="#d4af37" />
    </g>
  </g>
</svg>