<svg width="800" height="600" xmlns="http://www.w3.org/2000/svg">
  <!-- Background Gradient -->
  <defs>
    <linearGradient id="bg-gradient" x1="0%" y1="0%" x2="100%" y2="100%">
      <stop offset="0%" stop-color="#c0392b" />
      <stop offset="100%" stop-color="#922b21" />
    </linearGradient>
  </defs>
  <rect width="100%" height="100%" fill="url(#bg-gradient)" />
  
  <!-- Stylized Red Bridal Blouse Outline -->
  <g transform="translate(400, 300)">
    <!-- Blouse Body -->
    <path d="M -150,-120 C -120,-130 -80,-130 -50,-120 L -50,0 C -80,30 -120,30 -150,0 Z" fill="#c0392b" opacity="0.9" />
    <path d="M 150,-120 C 120,-130 80,-130 50,-120 L 50,0 C 80,30 120,30 150,0 Z" fill="#c0392b" opacity="0.9" />
    
    <!-- Neckline -->
    <path d="M -50,-120 C -30,-150 30,-150 50,-120" fill="none" stroke="#d4af37" stroke-width="4" />
    
    <!-- Decorative Gold Thread Work -->
    <g>
      <!-- Left Side Elaborate Pattern -->
      <path d="M -120,-100 C -100,-110 -80,-90 -60,-100" stroke="#d4af37" stroke-width="3" fill="none" />
      <path d="M -130,-80 C -110,-90 -90,-70 -70,-80" stroke="#d4af37" stroke-width="3" fill="none" />
      <path d="M -140,-60 C -120,-70 -100,-50 -80,-60" stroke="#d4af37" stroke-width="3" fill="none" />
      <path d="M -130,-40 C -110,-50 -90,-30 -70,-40" stroke="#d4af37" stroke-width="3" fill="none" />
      <path d="M -120,-20 C -100,-30 -80,-10 -60,-20" stroke="#d4af37" stroke-width="3" fill="none" />
      
      <!-- Right Side Elaborate Pattern -->
      <path d="M 120,-100 C 100,-110 80,-90 60,-100" stroke="#d4af37" stroke-width="3" fill="none" />
      <path d="M 130,-80 C 110,-90 90,-70 70,-80" stroke="#d4af37" stroke-width="3" fill="none" />
      <path d="M 140,-60 C 120,-70 100,-50 80,-60" stroke="#d4af37" stroke-width="3" fill="none" />
      <path d="M 130,-40 C 110,-50 90,-30 70,-40" stroke="#d4af37" stroke-width="3" fill="none" />
      <path d="M 120,-20 C 100,-30 80,-10 60,-20" stroke="#d4af37" stroke-width="3" fill="none" />
      
      <!-- Center Elaborate Embellishment -->
      <circle cx="0" cy="-90" r="25" fill="none" stroke="#d4af37" stroke-width="3" />
      <circle cx="0" cy="-90" r="18" fill="none" stroke="#d4af37" stroke-width="2" />
      <circle cx="0" cy="-90" r="10" fill="#d4af37" />
      
      <!-- Traditional Bridal Pattern Elements -->
      <path d="M -20,-90 C -15,-100 -5,-100 0,-90 C 5,-100 15,-100 20,-90" stroke="#d4af37" stroke-width="2" fill="none" />
      <path d="M -20,-80 C -15,-70 -5,-70 0,-80 C 5,-70 15,-70 20,-80" stroke="#d4af37" stroke-width="2" fill="none" />
      
      <!-- Decorative Gold Thread Elements -->
      <!-- Left Side -->
      <path d="M -100,-100 Q -90,-95 -80,-100" stroke="#d4af37" stroke-width="2" fill="none" />
      <path d="M -110,-90 Q -100,-85 -90,-90" stroke="#d4af37" stroke-width="2" fill="none" />
      <path d="M -120,-80 Q -110,-75 -100,-80" stroke="#d4af37" stroke-width="2" fill="none" />
      <path d="M -110,-70 Q -100,-65 -90,-70" stroke="#d4af37" stroke-width="2" fill="none" />
      <path d="M -100,-60 Q -90,-55 -80,-60" stroke="#d4af37" stroke-width="2" fill="none" />
      
      <path d="M -90,-100 Q -80,-95 -70,-100" stroke="#d4af37" stroke-width="2" fill="none" />
      <path d="M -100,-90 Q -90,-85 -80,-90" stroke="#d4af37" stroke-width="2" fill="none" />
      <path d="M -110,-80 Q -100,-75 -90,-80" stroke="#d4af37" stroke-width="2" fill="none" />
      <path d="M -100,-70 Q -90,-65 -80,-70" stroke="#d4af37" stroke-width="2" fill="none" />
      <path d="M -90,-60 Q -80,-55 -70,-60" stroke="#d4af37" stroke-width="2" fill="none" />
      
      <!-- Right Side -->
      <path d="M 100,-100 Q 90,-95 80,-100" stroke="#d4af37" stroke-width="2" fill="none" />
      <path d="M 110,-90 Q 100,-85 90,-90" stroke="#d4af37" stroke-width="2" fill="none" />
      <path d="M 120,-80 Q 110,-75 100,-80" stroke="#d4af37" stroke-width="2" fill="none" />
      <path d="M 110,-70 Q 100,-65 90,-70" stroke="#d4af37" stroke-width="2" fill="none" />
      <path d="M 100,-60 Q 90,-55 80,-60" stroke="#d4af37" stroke-width="2" fill="none" />
      
      <path d="M 90,-100 Q 80,-95 70,-100" stroke="#d4af37" stroke-width="2" fill="none" />
      <path d="M 100,-90 Q 90,-85 80,-90" stroke="#d4af37" stroke-width="2" fill="none" />
      <path d="M 110,-80 Q 100,-75 90,-80" stroke="#d4af37" stroke-width="2" fill="none" />
      <path d="M 100,-70 Q 90,-65 80,-70" stroke="#d4af37" stroke-width="2" fill="none" />
      <path d="M 90,-60 Q 80,-55 70,-60" stroke="#d4af37" stroke-width="2" fill="none" />
      
      <!-- Decorative Dots (representing gold beads) -->
      <circle cx="-95" cy="-95" r="2" fill="#d4af37" />
      <circle cx="-85" cy="-95" r="2" fill="#d4af37" />
      <circle cx="-75" cy="-95" r="2" fill="#d4af37" />
      <circle cx="-65" cy="-95" r="2" fill="#d4af37" />
      
      <circle cx="-105" cy="-85" r="2" fill="#d4af37" />
      <circle cx="-95" cy="-85" r="2" fill="#d4af37" />
      <circle cx="-85" cy="-85" r="2" fill="#d4af37" />
      <circle cx="-75" cy="-85" r="2" fill="#d4af37" />
      
      <circle cx="-115" cy="-75" r="2" fill="#d4af37" />
      <circle cx="-105" cy="-75" r="2" fill="#d4af37" />
      <circle cx="-95" cy="-75" r="2" fill="#d4af37" />
      <circle cx="-85" cy="-75" r="2" fill="#d4af37" />
      
      <circle cx="-105" cy="-65" r="2" fill="#d4af37" />
      <circle cx="-95" cy="-65" r="2" fill="#d4af37" />
      <circle cx="-85" cy="-65" r="2" fill="#d4af37" />
      <circle cx="-75" cy="-65" r="2" fill="#d4af37" />
      
      <circle cx="-95" cy="-55" r="2" fill="#d4af37" />
      <circle cx="-85" cy="-55" r="2" fill="#d4af37" />
      <circle cx="-75" cy="-55" r="2" fill="#d4af37" />
      <circle cx="-65" cy="-55" r="2" fill="#d4af37" />
      
      <circle cx="95" cy="-95" r="2" fill="#d4af37" />
      <circle cx="85" cy="-95" r="2" fill="#d4af37" />
      <circle cx="75" cy="-95" r="2" fill="#d4af37" />
      <circle cx="65" cy="-95" r="2" fill="#d4af37" />
      
      <circle cx="105" cy="-85" r="2" fill="#d4af37" />
      <circle cx="95" cy="-85" r="2" fill="#d4af37" />
      <circle cx="85" cy="-85" r="2" fill="#d4af37" />
      <circle cx="75" cy="-85" r="2" fill="#d4af37" />
      
      <circle cx="115" cy="-75" r="2" fill="#d4af37" />
      <circle cx="105" cy="-75" r="2" fill="#d4af37" />
      <circle cx="95" cy="-75" r="2" fill="#d4af37" />
      <circle cx="85" cy="-75" r="2" fill="#d4af37" />
      
      <circle cx="105" cy="-65" r="2" fill="#d4af37" />
      <circle cx="95" cy="-65" r="2" fill="#d4af37" />
      <circle cx="85" cy="-65" r="2" fill="#d4af37" />
      <circle cx="75" cy="-65" r="2" fill="#d4af37" />
      
      <circle cx="95" cy="-55" r="2" fill="#d4af37" />
      <circle cx="85" cy="-55" r="2" fill="#d4af37" />
      <circle cx="75" cy="-55" r="2" fill="#d4af37" />
      <circle cx="65" cy="-55" r="2" fill="#d4af37" />
      
      <!-- Additional Decorative Elements -->
      <g transform="translate(-30, -60)">
        <path d="M -5,-5 L 5,5 M -5,5 L 5,-5" stroke="#d4af37" stroke-width="1.5" />
        <circle cx="0" cy="0" r="7" fill="none" stroke="#d4af37" stroke-width="1" />
      </g>
      
      <g transform="translate(30, -60)">
        <path d="M -5,-5 L 5,5 M -5,5 L 5,-5" stroke="#d4af37" stroke-width="1.5" />
        <circle cx="0" cy="0" r="7" fill="none" stroke="#d4af37" stroke-width="1" />
      </g>
    </g>
  </g>
  
  <!-- Product Label -->
  <g transform="translate(400, 500)">
    <rect x="-150" y="-20" width="300" height="40" rx="5" fill="rgba(0,0,0,0.7)" />
    <text x="0" y="5" font-family="Arial, sans-serif" font-size="16" font-weight="bold" text-anchor="middle" fill="#fff">Crimson Bride</text>
  </g>
</svg>